<svg version="1.1" id="Layer_1" xmlns="http://www.w3.org/2000/svg" xmlns:xlink="http://www.w3.org/1999/xlink" x="0px" y="0px"
	 width="100%" viewBox="0 0 1000 500" enable-background="new 0 0 1000 500" xml:space="preserve">
<path fill="#ffffff" opacity="1.000000" stroke="none" 
	d="
M602.000000,501.000000 
	C401.366669,501.000000 201.233337,501.000000 1.050002,501.000000 
	C1.050002,334.394440 1.050002,167.788849 1.050002,1.091636 
	C334.216705,1.091636 667.433472,1.091636 1000.825073,1.091636 
	C1000.825073,167.666519 1000.825073,334.333252 1000.825073,501.000000 
	C868.122131,501.000000 735.311035,501.000000 602.000000,501.000000 
M81.866013,285.539978 
	C81.866013,304.624481 81.866013,323.709015 81.866013,343.102295 
	C87.938812,343.102295 93.393135,343.102295 99.064728,343.102295 
	C98.308327,348.326782 97.601868,353.206268 96.909500,357.988464 
	C84.485695,360.361755 72.588737,362.826233 60.608723,364.781830 
	C57.776123,365.244263 54.637253,364.122650 51.690254,363.491608 
	C49.652584,363.055298 47.570339,361.388336 45.735180,361.683533 
	C35.435608,363.340332 25.205021,365.425995 14.455965,367.458893 
	C15.130014,373.787323 15.768195,379.778961 16.430746,385.999390 
	C25.735018,384.250427 34.357117,382.468475 43.040340,381.064545 
	C47.471848,380.348083 51.050556,378.821594 54.213928,375.404572 
	C56.172001,373.289490 59.302734,371.767120 62.171688,371.073914 
	C74.290604,368.145721 86.530548,365.720001 98.661400,362.837677 
	C100.073784,362.502106 101.803772,360.644012 102.150650,359.195740 
	C103.413986,353.920990 104.152634,348.520569 105.144310,342.851807 
	C159.730865,342.851807 213.986115,342.851807 268.195251,342.851807 
	C268.195251,305.425964 268.195251,268.390656 268.195251,230.901794 
	C263.736725,230.901794 259.690186,230.901794 255.556854,230.901794 
	C255.730927,230.304504 255.729904,230.124405 255.819366,230.030411 
	C256.508087,229.306747 257.211334,228.596741 257.915588,227.888000 
	C272.783051,212.926224 279.422760,195.008820 277.229248,173.948425 
	C274.110199,144.002197 248.605972,119.159302 220.179718,116.736420 
	C179.802231,113.294884 155.016663,141.372467 149.775452,166.394974 
	C149.264236,168.835663 148.882553,170.860397 145.390564,171.301529 
	C142.161804,171.709396 140.573013,171.328705 138.544113,168.532700 
	C125.128281,150.044403 106.627220,142.390442 84.429398,146.615677 
	C63.510265,150.597488 49.087097,163.617386 43.177414,184.267258 
	C37.173801,205.245331 42.329498,224.086075 58.592960,238.764359 
	C65.056740,244.598114 73.468269,248.273788 81.527451,253.262756 
	C81.527451,253.724808 81.527451,255.464417 81.527451,258.691345 
	C75.179466,257.168732 69.501137,255.762726 63.800640,254.453232 
	C59.148651,253.384583 54.470169,252.431259 49.803436,251.426788 
	C49.612240,251.905914 49.421043,252.385040 49.229847,252.864151 
	C53.872765,262.547028 58.515678,272.229858 63.323990,282.257660 
	C65.399078,281.304749 68.044037,280.967102 68.751511,279.615387 
	C72.033592,273.344513 77.132744,276.506256 81.865974,276.050385 
	C81.865974,279.252655 81.865974,281.902802 81.866013,285.539978 
M299.868561,296.408966 
	C309.428650,302.214661 318.988739,308.020355 328.690186,313.911896 
	C328.690186,283.945465 328.690186,254.622131 328.690186,224.813507 
	C320.190887,229.984421 311.985321,234.657944 304.134064,239.865662 
	C298.931732,243.316360 293.651917,245.069199 287.361572,244.578934 
	C281.823242,244.147308 276.224609,244.488647 270.878601,244.488647 
	C270.878601,261.534180 270.878601,277.736664 270.878601,294.170807 
	C278.403503,294.170807 285.552094,294.028961 292.688934,294.255890 
	C294.874542,294.325348 297.027985,295.406128 299.868561,296.408966 
M575.700500,269.849609 
	C568.992004,262.769135 569.216980,254.000397 570.473022,245.396179 
	C572.026733,234.753265 578.838989,229.689316 589.638672,229.941895 
	C597.483887,230.125366 602.887329,233.699585 605.238342,241.054214 
	C610.835938,241.054214 616.113037,241.054214 621.411560,241.054214 
	C619.836914,227.489807 611.025635,219.290253 595.286499,216.532394 
	C576.596863,213.257568 560.133240,222.159622 555.511841,238.419678 
	C552.872681,247.705185 552.927979,257.242615 555.517273,266.536499 
	C559.011108,279.076599 568.845215,287.200745 580.780273,288.033997 
	C594.688232,289.004974 602.654724,284.184723 608.709961,271.169800 
	C608.874329,270.816650 609.330383,270.599274 609.691406,270.282654 
	C611.262085,275.962189 612.790894,281.490540 614.248535,286.761292 
	C617.081665,286.761292 619.350220,286.761292 621.675903,286.761292 
	C621.675903,273.446198 621.675903,260.378479 621.675903,247.206543 
	C610.325562,247.206543 599.236938,247.206543 588.070557,247.206543 
	C588.070557,251.144821 588.070557,254.863205 588.070557,259.103394 
	C594.040710,259.103394 599.737976,259.103394 605.489441,259.103394 
	C603.097351,273.504547 588.528137,278.855896 575.700500,269.849609 
M857.068726,279.427460 
	C857.068726,281.862915 857.068726,284.298401 857.068726,286.772217 
	C862.547058,286.772217 867.466492,286.772217 872.933411,286.772217 
	C872.933411,278.000458 872.933411,269.452179 872.933411,260.765747 
	C879.133850,260.765747 884.784729,260.684753 890.432251,260.787628 
	C896.515198,260.898468 897.993225,262.435760 898.273621,268.519836 
	C898.495361,273.332458 898.412476,278.189789 899.111206,282.932007 
	C899.334534,284.448242 901.512878,286.656708 902.992371,286.824646 
	C907.508606,287.337341 912.119995,287.010773 916.049255,287.010773 
	C915.610168,282.871399 914.893799,279.147217 914.883850,275.421143 
	C914.860046,266.494171 915.359009,257.475922 903.303162,254.111420 
	C910.078796,251.290665 914.483521,247.762268 916.026428,241.559280 
	C918.952576,229.795441 912.156799,219.211960 899.351746,218.235291 
	C885.504456,217.179153 871.514282,217.996170 857.068726,217.996170 
	C857.068726,237.924255 857.068726,258.185547 857.068726,279.427460 
M452.086121,216.240906 
	C443.519012,215.666214 435.065491,216.048401 427.218750,220.005722 
	C420.212646,223.539078 416.508270,229.310837 416.548676,237.230789 
	C416.589111,245.154022 420.718231,250.419540 427.873413,253.250748 
	C431.864258,254.829865 436.044281,255.987488 440.211517,257.051178 
	C446.953918,258.772186 453.838409,259.991547 460.475128,262.033081 
	C462.139557,262.545105 464.071564,265.368042 464.094452,267.151917 
	C464.117950,268.979279 462.375885,271.554657 460.672913,272.560852 
	C449.888336,278.932892 435.662109,274.344452 430.789520,263.224731 
	C425.657928,263.224731 420.534943,263.224731 415.386353,263.224731 
	C417.341370,277.816528 423.659088,284.676971 438.068726,287.189911 
	C449.044556,289.104034 460.040466,289.106689 470.264893,283.847382 
	C477.066986,280.348480 480.325317,274.490540 480.135834,266.715912 
	C479.952759,259.204773 476.264526,253.982285 469.554016,251.243179 
	C464.828857,249.314453 459.749695,248.205017 454.771851,246.955872 
	C448.979279,245.502258 442.980560,244.711945 437.370483,242.769623 
	C435.222839,242.026077 432.568298,238.885040 432.582123,236.853104 
	C432.595825,234.846664 435.302155,231.947983 437.495422,231.019974 
	C448.743347,226.260910 458.511475,230.169113 463.426300,240.824036 
	C468.430023,240.824036 473.405182,240.824036 478.729065,240.824036 
	C478.267151,238.521042 478.014099,236.405960 477.411621,234.395584 
	C473.787201,222.301727 464.450287,217.869400 452.086121,216.240906 
M408.896515,273.178833 
	C411.264740,260.997101 407.497131,254.079224 395.889435,249.927200 
	C392.160858,248.593506 388.210571,247.865189 384.343109,246.937439 
	C378.220093,245.468582 371.899689,244.576660 366.003326,242.482040 
	C360.694763,240.596237 360.276886,234.984924 364.638184,231.964447 
	C374.012329,225.472275 389.021027,230.190247 392.726685,240.690216 
	C397.833099,240.690216 402.890900,240.690216 408.083679,240.690216 
	C407.298920,231.460144 403.607941,224.055344 395.421783,220.228683 
	C382.204651,214.050278 368.592133,214.131760 355.518494,220.777039 
	C348.743225,224.220901 345.652496,230.430573 346.040344,238.144135 
	C346.405365,245.404495 350.246735,250.458115 356.800751,252.952011 
	C362.499023,255.120300 368.532288,256.426819 374.447876,257.999969 
	C379.722900,259.402740 385.261719,260.097473 390.276001,262.117706 
	C395.423157,264.191498 395.259918,269.711029 390.450867,272.548706 
	C379.657715,278.917389 364.947784,274.351105 360.270844,263.329742 
	C355.131897,263.329742 350.070221,263.329742 344.998474,263.329742 
	C345.801605,275.065765 351.610474,282.733582 362.425415,285.988373 
	C372.689056,289.077332 383.105072,289.029236 393.461182,286.352356 
	C400.380676,284.563782 405.923096,280.930115 408.896515,273.178833 
M679.917786,217.216476 
	C676.530090,216.996994 677.341248,219.516190 677.327271,221.340164 
	C677.228333,234.335419 677.426453,247.338211 677.043518,260.324249 
	C676.773315,269.488892 671.304321,274.165985 662.141846,274.021912 
	C653.481689,273.885681 648.392578,268.941132 648.019470,259.944031 
	C647.778015,254.121155 647.899048,248.282593 647.887878,242.451004 
	C647.871948,234.176895 647.883850,225.902740 647.883850,217.552719 
	C642.253052,217.552719 637.198120,217.552719 632.214600,217.552719 
	C632.092468,218.217972 631.979980,218.545486 631.979675,218.873093 
	C631.966797,232.370224 631.908264,245.867645 631.974609,259.364441 
	C632.052124,275.141754 639.830322,284.721283 655.281494,287.600830 
	C659.314941,288.352509 663.605286,288.241486 667.727356,287.906830 
	C681.420776,286.795166 691.880188,278.019379 692.678650,265.027161 
	C693.645142,249.302383 692.907898,233.472900 692.907898,217.214890 
	C688.759033,217.214890 684.800659,217.214890 679.917786,217.216476 
M936.937256,244.359512 
	C931.847961,258.431793 926.758667,272.504120 921.513306,287.008026 
	C923.687439,287.008026 925.011902,287.005310 926.336365,287.008453 
	C937.547668,287.035004 937.638489,287.067749 941.461304,276.368988 
	C942.379395,273.799500 943.446106,272.654816 946.356079,272.791931 
	C952.000549,273.057861 957.688232,273.170410 963.315613,272.762207 
	C966.966492,272.497375 968.233704,274.030823 969.078064,277.150330 
	C969.973450,280.458496 971.334717,283.640594 972.480469,286.843872 
	C977.892090,286.843872 983.002197,286.843872 988.530701,286.843872 
	C987.861450,284.710083 987.345520,282.818207 986.679688,280.980652 
	C980.410767,263.679321 974.109924,246.389572 967.831299,229.091797 
	C963.327637,216.684204 963.331604,216.594452 949.872742,217.342041 
	C948.422607,217.422607 946.336609,218.939880 945.791199,220.292831 
	C942.693359,227.977310 939.974304,235.814468 936.937256,244.359512 
M819.336731,217.216705 
	C818.003662,217.216705 816.627136,217.434692 815.345215,217.178589 
	C810.047852,216.120361 807.916809,218.654984 806.296326,223.494598 
	C801.500366,237.818146 796.141785,251.953125 791.017090,266.166809 
	C788.563232,272.972565 786.140381,279.789520 783.603088,286.882080 
	C789.374817,286.882080 794.520813,286.882080 799.727356,286.882080 
	C801.125793,283.048157 802.364807,279.251587 803.932312,275.595917 
	C804.407227,274.488495 805.769653,273.021667 806.761658,272.993500 
	C814.391296,272.777039 822.029846,272.874451 829.494019,272.874451 
	C831.271667,277.858398 832.875427,282.354706 834.479919,286.853149 
	C839.864624,286.853149 844.986206,286.853149 850.504822,286.853149 
	C849.902222,284.887848 849.451965,283.146973 848.839966,281.464874 
	C841.631348,261.649780 834.261108,241.891632 827.290771,221.993301 
	C825.935852,218.125351 824.205322,216.460571 819.336731,217.216705 
M542.860107,265.599243 
	C538.361511,253.300400 533.868652,240.999466 529.362793,228.703278 
	C525.114014,217.108414 525.106873,217.238220 512.655701,217.129074 
	C509.462860,217.101105 508.033630,218.086639 506.983093,221.072418 
	C501.261658,237.333755 495.319092,253.517212 489.468597,269.733215 
	C487.455322,275.313416 485.488312,280.910309 483.412384,286.746368 
	C489.172943,286.746368 494.405792,286.746368 499.546387,286.746368 
	C501.265320,282.005920 502.890076,277.525208 504.578033,272.870209 
	C512.120911,272.870209 519.429321,272.755127 526.726685,272.987488 
	C527.895142,273.024689 529.545410,274.380463 530.058228,275.533478 
	C531.715027,279.259125 532.945129,283.174530 534.245056,286.756073 
	C539.801147,286.756073 544.876160,286.756073 550.450073,286.756073 
	C547.892395,279.702881 545.472900,273.030884 542.860107,265.599243 
M733.935791,224.588120 
	C733.935791,245.334961 733.935791,266.081818 733.935791,286.644348 
	C750.302917,286.644348 766.030823,286.644348 781.548279,286.644348 
	C781.548279,281.871033 781.548279,277.462677 781.548279,272.789185 
	C770.912720,272.789185 760.627869,272.789185 749.742310,272.789185 
	C749.742310,254.151871 749.742310,235.790817 749.742310,217.474167 
	C744.197449,217.474167 739.263245,217.474167 733.935791,217.474167 
	C733.935791,219.686218 733.935791,221.650070 733.935791,224.588120 
M704.994568,260.500000 
	C704.994568,269.254425 704.994568,278.008850 704.994568,286.716858 
	C710.604736,286.716858 715.666992,286.716858 720.582947,286.716858 
	C720.582947,263.423065 720.582947,240.417847 720.582947,217.461151 
	C715.263245,217.461151 710.333313,217.461151 704.994568,217.461151 
	C704.994568,231.629990 704.994568,245.564987 704.994568,260.500000 
M487.966583,339.574341 
	C487.875366,339.713776 487.798096,339.865631 487.688599,339.988831 
	C487.598450,340.090302 487.470123,340.157867 487.358734,340.240448 
	C486.613159,338.846832 485.665283,337.523315 485.154297,336.048401 
	C481.359680,325.096222 477.651825,314.113983 473.977417,303.319427 
	C471.605896,303.319427 469.669922,303.319427 467.604980,303.319427 
	C467.604980,318.649078 467.604980,333.720581 467.604980,348.834778 
	C469.171234,348.834778 470.436005,348.834778 472.102905,348.834778 
	C472.102905,337.320770 472.102905,325.994171 472.102905,314.667572 
	C476.291168,324.538818 479.813110,334.495117 483.022400,344.551208 
	C484.157623,348.108307 485.621552,350.185242 489.791534,348.615601 
	C493.609985,337.539795 497.463928,326.360901 501.317902,315.182037 
	C501.641052,315.248535 501.964203,315.315033 502.287354,315.381531 
	C502.287354,326.458282 502.287354,337.535065 502.287354,348.735535 
	C504.054626,348.735535 505.420013,348.735535 506.699219,348.735535 
	C506.699219,333.352600 506.699219,318.265472 506.699219,303.287109 
	C504.416382,303.287109 502.447784,303.287109 500.439728,303.287109 
	C496.321503,315.240875 492.267853,327.007080 487.966583,339.574341 
M765.676147,303.054321 
	C764.237671,303.142548 762.799255,303.230774 761.369446,303.318481 
	C761.369446,318.720123 761.369446,333.765533 761.369446,348.756409 
	C772.104126,348.756409 782.521179,348.756409 793.103088,348.756409 
	C792.978271,347.190796 792.877014,345.920471 792.742554,344.234009 
	C783.734131,344.234009 774.994446,344.234009 766.220825,344.234009 
	C766.220825,338.248779 766.220825,332.712250 766.220825,326.928650 
	C774.663635,326.928650 782.776672,326.928650 791.118530,326.928650 
	C791.118530,325.287415 791.118530,323.903503 791.118530,322.051636 
	C782.592468,322.051636 774.367432,322.051636 766.098022,322.051636 
	C766.098022,317.157501 766.098022,312.735138 766.098022,307.752075 
	C774.741516,307.752075 783.181458,307.753479 791.621399,307.735840 
	C791.725037,307.735626 791.828064,307.490997 792.257263,306.948700 
	C792.197083,305.943298 792.113586,304.547943 792.024170,303.054321 
	C783.286743,303.054321 774.965881,303.054321 765.676147,303.054321 
M559.722900,347.007599 
	C572.340881,352.137390 583.188599,347.752716 585.373108,335.586578 
	C586.570374,328.918427 586.167114,321.630524 584.875183,314.932678 
	C583.290161,306.715637 576.841003,302.873596 568.158875,303.095459 
	C559.831299,303.308258 553.607117,307.450226 552.274536,315.468079 
	C551.180176,322.052948 551.091370,329.088440 552.194397,335.648895 
	C552.856995,339.589844 556.660034,343.002808 559.722900,347.007599 
M865.546082,314.870575 
	C865.013123,308.070221 862.758484,304.901062 856.309326,303.949005 
	C851.972900,303.308838 847.370422,303.513245 843.020569,304.193451 
	C838.766785,304.858551 835.983887,307.843689 835.435852,312.356018 
	C834.895996,316.801392 836.032715,320.769775 839.997253,323.182678 
	C842.210999,324.529999 844.854980,325.239288 847.377747,325.992432 
	C850.395020,326.893127 853.604675,327.235229 856.524109,328.357361 
	C860.792542,329.997925 862.531738,333.528351 861.895264,337.973175 
	C861.299011,342.136993 858.139832,343.533813 854.416687,344.038055 
	C844.766235,345.345093 841.328674,343.173492 838.286011,333.692291 
	C837.071106,333.831787 835.818054,333.975677 834.524658,334.124176 
	C834.542664,340.613495 836.655334,345.787201 842.872620,347.745636 
	C850.073181,350.013794 857.367310,350.111664 863.632812,344.896973 
	C864.809509,343.917633 865.587524,342.197876 866.052368,340.668671 
	C868.377686,333.019135 864.760010,326.372986 856.909790,323.977020 
	C852.948242,322.767914 848.767517,322.233978 844.869812,320.869537 
	C840.282410,319.263733 838.521057,314.164581 840.990356,310.826874 
	C844.598816,305.949310 858.453918,307.137817 860.573425,312.819611 
	C861.576904,315.509521 862.846252,315.540985 865.546082,314.870575 
M630.609985,317.046753 
	C633.966980,326.760345 637.237305,336.505859 640.788513,346.147888 
	C641.243530,347.383209 643.101257,348.699249 644.419739,348.825836 
	C645.432434,348.923065 646.976013,347.412109 647.643616,346.249023 
	C648.615967,344.555206 649.010437,342.530426 649.656494,340.648499 
	C653.891479,328.311035 658.127869,315.974030 662.352905,303.668640 
	C658.546997,302.012115 657.284607,303.797943 656.296814,306.766357 
	C652.498047,318.182251 648.531250,329.542236 644.259644,341.994232 
	C643.279053,339.385101 642.620544,337.752289 642.048035,336.089874 
	C638.647705,326.215485 635.173767,316.364746 631.933411,306.437897 
	C630.876404,303.199585 629.180847,302.290894 625.972412,303.571594 
	C627.416565,307.875671 628.837769,312.111206 630.609985,317.046753 
M711.933777,309.854950 
	C712.281982,309.222015 712.659729,308.025146 712.973999,308.041595 
	C717.000000,308.251953 716.711609,306.010590 715.972534,303.287415 
	C711.551147,303.287415 707.311523,303.287415 703.185730,303.287415 
	C701.154358,307.643982 704.294861,307.953796 706.924316,308.205841 
	C706.924316,320.398407 706.924316,332.157623 706.924316,344.402740 
	C702.858948,343.433411 702.023010,345.318024 702.993042,348.734619 
	C707.450562,348.734619 711.830017,348.734619 716.209534,348.734619 
	C716.516785,348.314697 716.823975,347.894745 717.131226,347.474823 
	C715.635803,346.009186 714.140320,344.543549 711.931641,342.378906 
	C711.931641,332.690979 711.931641,321.736481 711.933777,309.854950 
z"/>
<path fill="#000000" opacity="1.000000" stroke="none" 
	d="
M81.865997,285.046478 
	C81.865974,281.902802 81.865974,279.252655 81.865974,276.050385 
	C77.132744,276.506256 72.033592,273.344513 68.751511,279.615387 
	C68.044037,280.967102 65.399078,281.304749 63.323990,282.257660 
	C58.515678,272.229858 53.872765,262.547028 49.229847,252.864151 
	C49.421043,252.385040 49.612240,251.905914 49.803436,251.426788 
	C54.470169,252.431259 59.148651,253.384583 63.800640,254.453232 
	C69.501137,255.762726 75.179466,257.168732 81.527451,258.691345 
	C81.527451,255.464417 81.527451,253.724808 81.527451,253.262756 
	C73.468269,248.273788 65.056740,244.598114 58.592960,238.764359 
	C42.329498,224.086075 37.173801,205.245331 43.177414,184.267258 
	C49.087097,163.617386 63.510265,150.597488 84.429398,146.615677 
	C106.627220,142.390442 125.128281,150.044403 138.544113,168.532700 
	C140.573013,171.328705 142.161804,171.709396 145.390564,171.301529 
	C148.882553,170.860397 149.264236,168.835663 149.775452,166.394974 
	C155.016663,141.372467 179.802231,113.294884 220.179718,116.736420 
	C248.605972,119.159302 274.110199,144.002197 277.229248,173.948425 
	C279.422760,195.008820 272.783051,212.926224 257.915588,227.888000 
	C257.211334,228.596741 256.508087,229.306747 255.819366,230.030411 
	C255.729904,230.124405 255.730927,230.304504 255.556854,230.901794 
	C259.690186,230.901794 263.736725,230.901794 268.195251,230.901794 
	C268.195251,268.390656 268.195251,305.425964 268.195251,342.851807 
	C213.986115,342.851807 159.730865,342.851807 105.144310,342.851807 
	C104.152634,348.520569 103.413986,353.920990 102.150650,359.195740 
	C101.803772,360.644012 100.073784,362.502106 98.661400,362.837677 
	C86.530548,365.720001 74.290604,368.145721 62.171688,371.073914 
	C59.302734,371.767120 56.172001,373.289490 54.213928,375.404572 
	C51.050556,378.821594 47.471848,380.348083 43.040340,381.064545 
	C34.357117,382.468475 25.735018,384.250427 16.430746,385.999390 
	C15.768195,379.778961 15.130014,373.787323 14.455965,367.458893 
	C25.205021,365.425995 35.435608,363.340332 45.735180,361.683533 
	C47.570339,361.388336 49.652584,363.055298 51.690254,363.491608 
	C54.637253,364.122650 57.776123,365.244263 60.608723,364.781830 
	C72.588737,362.826233 84.485695,360.361755 96.909500,357.988464 
	C97.601868,353.206268 98.308327,348.326782 99.064728,343.102295 
	C93.393135,343.102295 87.938812,343.102295 81.866013,343.102295 
	C81.866013,323.709015 81.866013,304.624481 81.865997,285.046478 
M232.930542,154.526611 
	C221.915054,145.985107 209.869705,144.312881 197.395660,150.408600 
	C186.066254,155.944962 179.889175,165.593307 179.222534,178.221588 
	C178.400681,193.790298 188.379684,207.181656 203.364807,211.365204 
	C217.664963,215.357513 233.216095,208.872086 240.529633,195.865967 
	C248.191086,182.241089 245.406845,166.203583 232.930542,154.526611 
M78.025581,217.541107 
	C78.849693,218.101349 79.659363,218.684326 80.500084,219.218414 
	C93.692505,227.599396 111.129715,223.062424 118.226700,209.407822 
	C125.444550,195.520660 119.542084,178.712280 105.276108,172.528580 
	C93.579010,167.458389 79.873474,171.551392 72.693069,182.259155 
	C65.246040,193.364517 67.075287,206.689316 78.025581,217.541107 
M165.134003,231.170334 
	C166.855179,231.170334 168.576355,231.170334 170.155746,231.170334 
	C166.055969,226.062317 162.151260,221.412186 158.498886,216.571655 
	C156.039658,213.312332 147.291626,213.362869 145.447632,216.992325 
	C143.162796,221.489487 141.167572,226.133820 138.836273,231.170349 
	C147.429489,231.170349 155.824448,231.170349 165.134003,231.170334 
M251.870926,331.785461 
	C253.090607,329.665741 255.296341,327.549347 255.303543,325.425537 
	C255.314911,322.068542 252.371170,319.728851 249.156769,320.790558 
	C247.053833,321.485138 244.428894,324.306000 244.257614,326.359650 
	C243.916000,330.455658 246.852692,332.473022 251.870926,331.785461 
z"/>
<path fill="#000000" opacity="1.000000" stroke="none" 
	d="
M299.532349,296.216370 
	C297.027985,295.406128 294.874542,294.325348 292.688934,294.255890 
	C285.552094,294.028961 278.403503,294.170807 270.878601,294.170807 
	C270.878601,277.736664 270.878601,261.534180 270.878601,244.488647 
	C276.224609,244.488647 281.823242,244.147308 287.361572,244.578934 
	C293.651917,245.069199 298.931732,243.316360 304.134064,239.865662 
	C311.985321,234.657944 320.190887,229.984421 328.690186,224.813507 
	C328.690186,254.622131 328.690186,283.945465 328.690186,313.911896 
	C318.988739,308.020355 309.428650,302.214661 299.532349,296.216370 
z"/>
<path fill="#000000" opacity="1.000000" stroke="none" 
	d="
M575.987427,270.090820 
	C588.528137,278.855896 603.097351,273.504547 605.489441,259.103394 
	C599.737976,259.103394 594.040710,259.103394 588.070557,259.103394 
	C588.070557,254.863205 588.070557,251.144821 588.070557,247.206543 
	C599.236938,247.206543 610.325562,247.206543 621.675903,247.206543 
	C621.675903,260.378479 621.675903,273.446198 621.675903,286.761292 
	C619.350220,286.761292 617.081665,286.761292 614.248535,286.761292 
	C612.790894,281.490540 611.262085,275.962189 609.691406,270.282654 
	C609.330383,270.599274 608.874329,270.816650 608.709961,271.169800 
	C602.654724,284.184723 594.688232,289.004974 580.780273,288.033997 
	C568.845215,287.200745 559.011108,279.076599 555.517273,266.536499 
	C552.927979,257.242615 552.872681,247.705185 555.511841,238.419678 
	C560.133240,222.159622 576.596863,213.257568 595.286499,216.532394 
	C611.025635,219.290253 619.836914,227.489807 621.411560,241.054214 
	C616.113037,241.054214 610.835938,241.054214 605.238342,241.054214 
	C602.887329,233.699585 597.483887,230.125366 589.638672,229.941895 
	C578.838989,229.689316 572.026733,234.753265 570.473022,245.396179 
	C569.216980,254.000397 568.992004,262.769135 575.987427,270.090820 
z"/>
<path fill="#000000" opacity="1.000000" stroke="none" 
	d="
M857.068726,278.937134 
	C857.068726,258.185547 857.068726,237.924255 857.068726,217.996170 
	C871.514282,217.996170 885.504456,217.179153 899.351746,218.235291 
	C912.156799,219.211960 918.952576,229.795441 916.026428,241.559280 
	C914.483521,247.762268 910.078796,251.290665 903.303162,254.111420 
	C915.359009,257.475922 914.860046,266.494171 914.883850,275.421143 
	C914.893799,279.147217 915.610168,282.871399 916.049255,287.010773 
	C912.119995,287.010773 907.508606,287.337341 902.992371,286.824646 
	C901.512878,286.656708 899.334534,284.448242 899.111206,282.932007 
	C898.412476,278.189789 898.495361,273.332458 898.273621,268.519836 
	C897.993225,262.435760 896.515198,260.898468 890.432251,260.787628 
	C884.784729,260.684753 879.133850,260.765747 872.933411,260.765747 
	C872.933411,269.452179 872.933411,278.000458 872.933411,286.772217 
	C867.466492,286.772217 862.547058,286.772217 857.068726,286.772217 
	C857.068726,284.298401 857.068726,281.862915 857.068726,278.937134 
M872.787109,240.429626 
	C872.787109,242.696579 872.787109,244.963531 872.787109,247.244766 
	C880.279053,247.244766 887.227539,247.578033 894.125183,247.129410 
	C898.844299,246.822495 901.080017,243.592514 900.955505,238.966766 
	C900.835266,234.502121 898.531311,231.446869 894.164612,231.193588 
	C887.118164,230.784882 880.030762,231.083740 872.787109,231.083740 
	C872.787109,234.176208 872.787109,236.817123 872.787109,240.429626 
z"/>
<path fill="#000000" opacity="1.000000" stroke="none" 
	d="
M452.534851,216.297150 
	C464.450287,217.869400 473.787201,222.301727 477.411621,234.395584 
	C478.014099,236.405960 478.267151,238.521042 478.729065,240.824036 
	C473.405182,240.824036 468.430023,240.824036 463.426300,240.824036 
	C458.511475,230.169113 448.743347,226.260910 437.495422,231.019974 
	C435.302155,231.947983 432.595825,234.846664 432.582123,236.853104 
	C432.568298,238.885040 435.222839,242.026077 437.370483,242.769623 
	C442.980560,244.711945 448.979279,245.502258 454.771851,246.955872 
	C459.749695,248.205017 464.828857,249.314453 469.554016,251.243179 
	C476.264526,253.982285 479.952759,259.204773 480.135834,266.715912 
	C480.325317,274.490540 477.066986,280.348480 470.264893,283.847382 
	C460.040466,289.106689 449.044556,289.104034 438.068726,287.189911 
	C423.659088,284.676971 417.341370,277.816528 415.386353,263.224731 
	C420.534943,263.224731 425.657928,263.224731 430.789520,263.224731 
	C435.662109,274.344452 449.888336,278.932892 460.672913,272.560852 
	C462.375885,271.554657 464.117950,268.979279 464.094452,267.151917 
	C464.071564,265.368042 462.139557,262.545105 460.475128,262.033081 
	C453.838409,259.991547 446.953918,258.772186 440.211517,257.051178 
	C436.044281,255.987488 431.864258,254.829865 427.873413,253.250748 
	C420.718231,250.419540 416.589111,245.154022 416.548676,237.230789 
	C416.508270,229.310837 420.212646,223.539078 427.218750,220.005722 
	C435.065491,216.048401 443.519012,215.666214 452.534851,216.297150 
z"/>
<path fill="#000000" opacity="1.000000" stroke="none" 
	d="
M408.763672,273.550171 
	C405.923096,280.930115 400.380676,284.563782 393.461182,286.352356 
	C383.105072,289.029236 372.689056,289.077332 362.425415,285.988373 
	C351.610474,282.733582 345.801605,275.065765 344.998474,263.329742 
	C350.070221,263.329742 355.131897,263.329742 360.270844,263.329742 
	C364.947784,274.351105 379.657715,278.917389 390.450867,272.548706 
	C395.259918,269.711029 395.423157,264.191498 390.276001,262.117706 
	C385.261719,260.097473 379.722900,259.402740 374.447876,257.999969 
	C368.532288,256.426819 362.499023,255.120300 356.800751,252.952011 
	C350.246735,250.458115 346.405365,245.404495 346.040344,238.144135 
	C345.652496,230.430573 348.743225,224.220901 355.518494,220.777039 
	C368.592133,214.131760 382.204651,214.050278 395.421783,220.228683 
	C403.607941,224.055344 407.298920,231.460144 408.083679,240.690216 
	C402.890900,240.690216 397.833099,240.690216 392.726685,240.690216 
	C389.021027,230.190247 374.012329,225.472275 364.638184,231.964447 
	C360.276886,234.984924 360.694763,240.596237 366.003326,242.482040 
	C371.899689,244.576660 378.220093,245.468582 384.343109,246.937439 
	C388.210571,247.865189 392.160858,248.593506 395.889435,249.927200 
	C407.497131,254.079224 411.264740,260.997101 408.763672,273.550171 
z"/>
<path fill="#000000" opacity="1.000000" stroke="none" 
	d="
M680.380005,217.215683 
	C684.800659,217.214890 688.759033,217.214890 692.907898,217.214890 
	C692.907898,233.472900 693.645142,249.302383 692.678650,265.027161 
	C691.880188,278.019379 681.420776,286.795166 667.727356,287.906830 
	C663.605286,288.241486 659.314941,288.352509 655.281494,287.600830 
	C639.830322,284.721283 632.052124,275.141754 631.974609,259.364441 
	C631.908264,245.867645 631.966797,232.370224 631.979675,218.873093 
	C631.979980,218.545486 632.092468,218.217972 632.214600,217.552719 
	C637.198120,217.552719 642.253052,217.552719 647.883850,217.552719 
	C647.883850,225.902740 647.871948,234.176895 647.887878,242.451004 
	C647.899048,248.282593 647.778015,254.121155 648.019470,259.944031 
	C648.392578,268.941132 653.481689,273.885681 662.141846,274.021912 
	C671.304321,274.165985 676.773315,269.488892 677.043518,260.324249 
	C677.426453,247.338211 677.228333,234.335419 677.327271,221.340164 
	C677.341248,219.516190 676.530090,216.996994 680.380005,217.215683 
z"/>
<path fill="#000000" opacity="1.000000" stroke="none" 
	d="
M937.031860,243.979614 
	C939.974304,235.814468 942.693359,227.977310 945.791199,220.292831 
	C946.336609,218.939880 948.422607,217.422607 949.872742,217.342041 
	C963.331604,216.594452 963.327637,216.684204 967.831299,229.091797 
	C974.109924,246.389572 980.410767,263.679321 986.679688,280.980652 
	C987.345520,282.818207 987.861450,284.710083 988.530701,286.843872 
	C983.002197,286.843872 977.892090,286.843872 972.480469,286.843872 
	C971.334717,283.640594 969.973450,280.458496 969.078064,277.150330 
	C968.233704,274.030823 966.966492,272.497375 963.315613,272.762207 
	C957.688232,273.170410 952.000549,273.057861 946.356079,272.791931 
	C943.446106,272.654816 942.379395,273.799500 941.461304,276.368988 
	C937.638489,287.067749 937.547668,287.035004 926.336365,287.008453 
	C925.011902,287.005310 923.687439,287.008026 921.513306,287.008026 
	C926.758667,272.504120 931.847961,258.431793 937.031860,243.979614 
M956.299805,240.166275 
	C956.057007,239.434799 955.814270,238.703308 955.137573,236.664154 
	C952.178711,245.108917 949.623352,252.402069 947.005798,259.872681 
	C952.660767,259.872681 957.720886,259.872681 963.158386,259.872681 
	C960.915771,253.318069 958.785950,247.093155 956.299805,240.166275 
z"/>
<path fill="#000000" opacity="1.000000" stroke="none" 
	d="
M819.795410,217.216705 
	C824.205322,216.460571 825.935852,218.125351 827.290771,221.993301 
	C834.261108,241.891632 841.631348,261.649780 848.839966,281.464874 
	C849.451965,283.146973 849.902222,284.887848 850.504822,286.853149 
	C844.986206,286.853149 839.864624,286.853149 834.479919,286.853149 
	C832.875427,282.354706 831.271667,277.858398 829.494019,272.874451 
	C822.029846,272.874451 814.391296,272.777039 806.761658,272.993500 
	C805.769653,273.021667 804.407227,274.488495 803.932312,275.595917 
	C802.364807,279.251587 801.125793,283.048157 799.727356,286.882080 
	C794.520813,286.882080 789.374817,286.882080 783.603088,286.882080 
	C786.140381,279.789520 788.563232,272.972565 791.017090,266.166809 
	C796.141785,251.953125 801.500366,237.818146 806.296326,223.494598 
	C807.916809,218.654984 810.047852,216.120361 815.345215,217.178589 
	C816.627136,217.434692 818.003662,217.216705 819.795410,217.216705 
M810.072937,256.626373 
	C809.802917,257.682037 809.532898,258.737671 809.230408,259.920166 
	C814.596008,259.920166 819.677551,259.920166 825.204102,259.920166 
	C822.591675,252.398056 820.087036,245.186142 817.149841,236.728943 
	C814.601868,243.874573 812.465393,249.866318 810.072937,256.626373 
z"/>
<path fill="#000000" opacity="1.000000" stroke="none" 
	d="
M542.956787,265.979065 
	C545.472900,273.030884 547.892395,279.702881 550.450073,286.756073 
	C544.876160,286.756073 539.801147,286.756073 534.245056,286.756073 
	C532.945129,283.174530 531.715027,279.259125 530.058228,275.533478 
	C529.545410,274.380463 527.895142,273.024689 526.726685,272.987488 
	C519.429321,272.755127 512.120911,272.870209 504.578033,272.870209 
	C502.890076,277.525208 501.265320,282.005920 499.546387,286.746368 
	C494.405792,286.746368 489.172943,286.746368 483.412384,286.746368 
	C485.488312,280.910309 487.455322,275.313416 489.468597,269.733215 
	C495.319092,253.517212 501.261658,237.333755 506.983093,221.072418 
	C508.033630,218.086639 509.462860,217.101105 512.655701,217.129074 
	C525.106873,217.238220 525.114014,217.108414 529.362793,228.703278 
	C533.868652,240.999466 538.361511,253.300400 542.956787,265.979065 
M514.279541,243.786667 
	C512.480774,249.074142 510.681976,254.361618 508.785889,259.935089 
	C514.308960,259.935089 519.405212,259.935089 524.989014,259.935089 
	C522.325256,252.357651 519.747559,245.024979 516.815247,236.683411 
	C515.805786,239.645370 515.220276,241.363541 514.279541,243.786667 
z"/>
<path fill="#000000" opacity="1.000000" stroke="none" 
	d="
M733.935791,224.101013 
	C733.935791,221.650070 733.935791,219.686218 733.935791,217.474167 
	C739.263245,217.474167 744.197449,217.474167 749.742310,217.474167 
	C749.742310,235.790817 749.742310,254.151871 749.742310,272.789185 
	C760.627869,272.789185 770.912720,272.789185 781.548279,272.789185 
	C781.548279,277.462677 781.548279,281.871033 781.548279,286.644348 
	C766.030823,286.644348 750.302917,286.644348 733.935791,286.644348 
	C733.935791,266.081818 733.935791,245.334961 733.935791,224.101013 
z"/>
<path fill="#000000" opacity="1.000000" stroke="none" 
	d="
M704.994568,260.000000 
	C704.994568,245.564987 704.994568,231.629990 704.994568,217.461151 
	C710.333313,217.461151 715.263245,217.461151 720.582947,217.461151 
	C720.582947,240.417847 720.582947,263.423065 720.582947,286.716858 
	C715.666992,286.716858 710.604736,286.716858 704.994568,286.716858 
	C704.994568,278.008850 704.994568,269.254425 704.994568,260.000000 
z"/>
<path fill="#000000" opacity="1.000000" stroke="none" 
	d="
M488.090393,339.173828 
	C492.267853,327.007080 496.321503,315.240875 500.439728,303.287109 
	C502.447784,303.287109 504.416382,303.287109 506.699219,303.287109 
	C506.699219,318.265472 506.699219,333.352600 506.699219,348.735535 
	C505.420013,348.735535 504.054626,348.735535 502.287354,348.735535 
	C502.287354,337.535065 502.287354,326.458282 502.287354,315.381531 
	C501.964203,315.315033 501.641052,315.248535 501.317902,315.182037 
	C497.463928,326.360901 493.609985,337.539795 489.791534,348.615601 
	C485.621552,350.185242 484.157623,348.108307 483.022400,344.551208 
	C479.813110,334.495117 476.291168,324.538818 472.102905,314.667572 
	C472.102905,325.994171 472.102905,337.320770 472.102905,348.834778 
	C470.436005,348.834778 469.171234,348.834778 467.604980,348.834778 
	C467.604980,333.720581 467.604980,318.649078 467.604980,303.319427 
	C469.669922,303.319427 471.605896,303.319427 473.977417,303.319427 
	C477.651825,314.113983 481.359680,325.096222 485.154297,336.048401 
	C485.665283,337.523315 486.613159,338.846832 487.358734,340.240448 
	C487.470123,340.157867 487.598450,340.090302 487.688599,339.988831 
	C487.798096,339.865631 487.875366,339.713776 488.090393,339.173828 
z"/>
<path fill="#000000" opacity="1.000000" stroke="none" 
	d="
M766.160583,303.054321 
	C774.965881,303.054321 783.286743,303.054321 792.024170,303.054321 
	C792.113586,304.547943 792.197083,305.943298 792.257263,306.948700 
	C791.828064,307.490997 791.725037,307.735626 791.621399,307.735840 
	C783.181458,307.753479 774.741516,307.752075 766.098022,307.752075 
	C766.098022,312.735138 766.098022,317.157501 766.098022,322.051636 
	C774.367432,322.051636 782.592468,322.051636 791.118530,322.051636 
	C791.118530,323.903503 791.118530,325.287415 791.118530,326.928650 
	C782.776672,326.928650 774.663635,326.928650 766.220825,326.928650 
	C766.220825,332.712250 766.220825,338.248779 766.220825,344.234009 
	C774.994446,344.234009 783.734131,344.234009 792.742554,344.234009 
	C792.877014,345.920471 792.978271,347.190796 793.103088,348.756409 
	C782.521179,348.756409 772.104126,348.756409 761.369446,348.756409 
	C761.369446,333.765533 761.369446,318.720123 761.369446,303.318481 
	C762.799255,303.230774 764.237671,303.142548 766.160583,303.054321 
z"/>
<path fill="#000000" opacity="1.000000" stroke="none" 
	d="
M559.387329,346.830322 
	C556.660034,343.002808 552.856995,339.589844 552.194397,335.648895 
	C551.091370,329.088440 551.180176,322.052948 552.274536,315.468079 
	C553.607117,307.450226 559.831299,303.308258 568.158875,303.095459 
	C576.841003,302.873596 583.290161,306.715637 584.875183,314.932678 
	C586.167114,321.630524 586.570374,328.918427 585.373108,335.586578 
	C583.188599,347.752716 572.340881,352.137390 559.387329,346.830322 
M576.349121,342.090759 
	C583.879211,334.142944 582.940674,324.846375 580.145142,315.538971 
	C578.497681,310.053619 574.599426,307.879120 568.686401,307.881348 
	C562.894409,307.883514 558.558960,310.188263 557.255127,315.545349 
	C556.027344,320.590118 555.546509,326.048706 555.984375,331.219574 
	C556.962341,342.766113 565.060608,347.182037 576.349121,342.090759 
z"/>
<path fill="#000000" opacity="1.000000" stroke="none" 
	d="
M865.227661,315.049866 
	C862.846252,315.540985 861.576904,315.509521 860.573425,312.819611 
	C858.453918,307.137817 844.598816,305.949310 840.990356,310.826874 
	C838.521057,314.164581 840.282410,319.263733 844.869812,320.869537 
	C848.767517,322.233978 852.948242,322.767914 856.909790,323.977020 
	C864.760010,326.372986 868.377686,333.019135 866.052368,340.668671 
	C865.587524,342.197876 864.809509,343.917633 863.632812,344.896973 
	C857.367310,350.111664 850.073181,350.013794 842.872620,347.745636 
	C836.655334,345.787201 834.542664,340.613495 834.524658,334.124176 
	C835.818054,333.975677 837.071106,333.831787 838.286011,333.692291 
	C841.328674,343.173492 844.766235,345.345093 854.416687,344.038055 
	C858.139832,343.533813 861.299011,342.136993 861.895264,337.973175 
	C862.531738,333.528351 860.792542,329.997925 856.524109,328.357361 
	C853.604675,327.235229 850.395020,326.893127 847.377747,325.992432 
	C844.854980,325.239288 842.210999,324.529999 839.997253,323.182678 
	C836.032715,320.769775 834.895996,316.801392 835.435852,312.356018 
	C835.983887,307.843689 838.766785,304.858551 843.020569,304.193451 
	C847.370422,303.513245 851.972900,303.308838 856.309326,303.949005 
	C862.758484,304.901062 865.013123,308.070221 865.227661,315.049866 
z"/>
<path fill="#000000" opacity="1.000000" stroke="none" 
	d="
M630.434448,316.696777 
	C628.837769,312.111206 627.416565,307.875671 625.972412,303.571594 
	C629.180847,302.290894 630.876404,303.199585 631.933411,306.437897 
	C635.173767,316.364746 638.647705,326.215485 642.048035,336.089874 
	C642.620544,337.752289 643.279053,339.385101 644.259644,341.994232 
	C648.531250,329.542236 652.498047,318.182251 656.296814,306.766357 
	C657.284607,303.797943 658.546997,302.012115 662.352905,303.668640 
	C658.127869,315.974030 653.891479,328.311035 649.656494,340.648499 
	C649.010437,342.530426 648.615967,344.555206 647.643616,346.249023 
	C646.976013,347.412109 645.432434,348.923065 644.419739,348.825836 
	C643.101257,348.699249 641.243530,347.383209 640.788513,346.147888 
	C637.237305,336.505859 633.966980,326.760345 630.434448,316.696777 
z"/>
<path fill="#000000" opacity="1.000000" stroke="none" 
	d="
M711.932739,310.318481 
	C711.931641,321.736481 711.931641,332.690979 711.931641,342.378906 
	C714.140320,344.543549 715.635803,346.009186 717.131226,347.474823 
	C716.823975,347.894745 716.516785,348.314697 716.209534,348.734619 
	C711.830017,348.734619 707.450562,348.734619 702.993042,348.734619 
	C702.023010,345.318024 702.858948,343.433411 706.924316,344.402740 
	C706.924316,332.157623 706.924316,320.398407 706.924316,308.205841 
	C704.294861,307.953796 701.154358,307.643982 703.185730,303.287415 
	C707.311523,303.287415 711.551147,303.287415 715.972534,303.287415 
	C716.711609,306.010590 717.000000,308.251953 712.973999,308.041595 
	C712.659729,308.025146 712.281982,309.222015 711.932739,310.318481 
z"/>
<path fill="#ffffff" opacity="1.000000" stroke="none" 
	d="
M233.185577,154.779648 
	C245.406845,166.203583 248.191086,182.241089 240.529633,195.865967 
	C233.216095,208.872086 217.664963,215.357513 203.364807,211.365204 
	C188.379684,207.181656 178.400681,193.790298 179.222534,178.221588 
	C179.889175,165.593307 186.066254,155.944962 197.395660,150.408600 
	C209.869705,144.312881 221.915054,145.985107 233.185577,154.779648 
M228.097900,192.677048 
	C229.240204,189.006378 228.009064,185.994690 224.298569,185.654938 
	C222.368240,185.478210 218.946671,187.522568 218.490799,189.190201 
	C218.017303,190.922256 219.811462,194.327057 221.552780,195.274094 
	C222.912567,196.013641 225.708939,194.111725 228.097900,192.677048 
M208.316864,191.473267 
	C206.225357,190.596695 204.026398,188.875290 202.077881,189.123108 
	C200.637482,189.306305 198.716766,191.958252 198.509521,193.689789 
	C198.331772,195.174973 199.905640,197.511673 201.361603,198.425812 
	C205.174728,200.819916 208.832413,197.554230 208.316864,191.473267 
M212.266891,165.866028 
	C212.511749,163.474167 213.457886,160.830566 212.725220,158.789627 
	C212.318390,157.656326 208.939667,156.784485 207.215607,157.177505 
	C205.767197,157.507660 204.085785,159.683075 203.715439,161.315582 
	C202.760529,165.524979 206.427673,167.734497 212.266891,165.866028 
M220.667023,169.257050 
	C221.207047,171.610092 221.172653,174.409897 222.516525,176.137711 
	C223.246704,177.076477 226.852570,176.912506 228.187363,175.926895 
	C229.511826,174.948898 230.380524,172.192429 230.097488,170.433472 
	C229.451096,166.416687 225.522247,165.742813 220.667023,169.257050 
M197.210251,181.233109 
	C200.532059,180.411224 202.211731,178.109726 201.174820,174.993576 
	C200.622910,173.334900 198.131104,170.947220 196.950134,171.172272 
	C194.810028,171.580154 191.858414,173.341202 191.285324,175.174850 
	C190.143921,178.826767 192.577499,181.030777 197.210251,181.233109 
z"/>
<path fill="#ffffff" opacity="1.000000" stroke="none" 
	d="
M77.749023,217.307480 
	C67.075287,206.689316 65.246040,193.364517 72.693069,182.259155 
	C79.873474,171.551392 93.579010,167.458389 105.276108,172.528580 
	C119.542084,178.712280 125.444550,195.520660 118.226700,209.407822 
	C111.129715,223.062424 93.692505,227.599396 80.500084,219.218414 
	C79.659363,218.684326 78.849693,218.101349 77.749023,217.307480 
M88.058708,181.748108 
	C87.883179,184.966156 89.506729,187.035004 92.598709,186.620621 
	C94.019852,186.430115 95.862030,184.374695 96.216675,182.861130 
	C96.486870,181.707993 94.715706,178.900818 93.848480,178.899033 
	C91.980881,178.895218 90.110542,180.224777 88.058708,181.748108 
M107.651566,194.256287 
	C108.224564,192.431198 109.574699,190.371262 109.117241,188.857590 
	C108.770119,187.709000 105.869583,186.366577 104.565331,186.735794 
	C103.173347,187.129822 101.359665,189.483017 101.433113,190.892212 
	C101.589439,193.891479 103.755554,195.434525 107.651566,194.256287 
M87.712517,212.544083 
	C90.732735,212.487595 92.633789,210.956406 92.059128,207.956085 
	C91.785751,206.528839 90.011047,204.413269 88.852234,204.371048 
	C87.298050,204.314392 84.342056,206.005981 84.368950,206.873138 
	C84.426132,208.716675 86.020531,210.512512 87.712517,212.544083 
M100.475502,203.393555 
	C99.579422,208.025452 101.998322,211.361847 105.182526,209.619461 
	C106.651443,208.815689 108.172035,205.662720 107.693863,204.237778 
	C106.597771,200.971451 103.788857,200.679993 100.475502,203.393555 
M80.849281,198.012619 
	C82.566154,197.153290 85.031807,196.689423 85.761101,195.308502 
	C86.336250,194.219498 85.232399,191.202362 84.030067,190.512146 
	C82.853966,189.836990 79.174828,190.830978 79.095116,191.426865 
	C78.824455,193.449966 79.660088,195.621094 80.849281,198.012619 
z"/>
<path fill="#ffffff" opacity="1.000000" stroke="none" 
	d="
M164.676697,231.170349 
	C155.824448,231.170349 147.429489,231.170349 138.836273,231.170349 
	C141.167572,226.133820 143.162796,221.489487 145.447632,216.992325 
	C147.291626,213.362869 156.039658,213.312332 158.498886,216.571655 
	C162.151260,221.412186 166.055969,226.062317 170.155746,231.170334 
	C168.576355,231.170334 166.855179,231.170334 164.676697,231.170349 
z"/>
<path fill="#ffffff" opacity="1.000000" stroke="none" 
	d="
M251.488770,331.883453 
	C246.852692,332.473022 243.916000,330.455658 244.257614,326.359650 
	C244.428894,324.306000 247.053833,321.485138 249.156769,320.790558 
	C252.371170,319.728851 255.314911,322.068542 255.303543,325.425537 
	C255.296341,327.549347 253.090607,329.665741 251.488770,331.883453 
z"/>
<path fill="#ffffff" opacity="1.000000" stroke="none" 
	d="
M872.787109,239.943817 
	C872.787109,236.817123 872.787109,234.176208 872.787109,231.083740 
	C880.030762,231.083740 887.118164,230.784882 894.164612,231.193588 
	C898.531311,231.446869 900.835266,234.502121 900.955505,238.966766 
	C901.080017,243.592514 898.844299,246.822495 894.125183,247.129410 
	C887.227539,247.578033 880.279053,247.244766 872.787109,247.244766 
	C872.787109,244.963531 872.787109,242.696579 872.787109,239.943817 
z"/>
<path fill="#ffffff" opacity="1.000000" stroke="none" 
	d="
M956.477966,240.517242 
	C958.785950,247.093155 960.915771,253.318069 963.158386,259.872681 
	C957.720886,259.872681 952.660767,259.872681 947.005798,259.872681 
	C949.623352,252.402069 952.178711,245.108917 955.137573,236.664154 
	C955.814270,238.703308 956.057007,239.434799 956.477966,240.517242 
z"/>
<path fill="#ffffff" opacity="1.000000" stroke="none" 
	d="
M810.200928,256.242218 
	C812.465393,249.866318 814.601868,243.874573 817.149841,236.728943 
	C820.087036,245.186142 822.591675,252.398056 825.204102,259.920166 
	C819.677551,259.920166 814.596008,259.920166 809.230408,259.920166 
	C809.532898,258.737671 809.802917,257.682037 810.200928,256.242218 
z"/>
<path fill="#ffffff" opacity="1.000000" stroke="none" 
	d="
M514.457153,243.434174 
	C515.220276,241.363541 515.805786,239.645370 516.815247,236.683411 
	C519.747559,245.024979 522.325256,252.357651 524.989014,259.935089 
	C519.405212,259.935089 514.308960,259.935089 508.785889,259.935089 
	C510.681976,254.361618 512.480774,249.074142 514.457153,243.434174 
z"/>
<path fill="#ffffff" opacity="1.000000" stroke="none" 
	d="
M576.042725,342.340912 
	C565.060608,347.182037 556.962341,342.766113 555.984375,331.219574 
	C555.546509,326.048706 556.027344,320.590118 557.255127,315.545349 
	C558.558960,310.188263 562.894409,307.883514 568.686401,307.881348 
	C574.599426,307.879120 578.497681,310.053619 580.145142,315.538971 
	C582.940674,324.846375 583.879211,334.142944 576.042725,342.340912 
z"/>
<path fill="#000000" opacity="1.000000" stroke="none" 
	d="
M227.982422,193.030304 
	C225.708939,194.111725 222.912567,196.013641 221.552780,195.274094 
	C219.811462,194.327057 218.017303,190.922256 218.490799,189.190201 
	C218.946671,187.522568 222.368240,185.478210 224.298569,185.654938 
	C228.009064,185.994690 229.240204,189.006378 227.982422,193.030304 
z"/>
<path fill="#000000" opacity="1.000000" stroke="none" 
	d="
M208.517258,191.797028 
	C208.832413,197.554230 205.174728,200.819916 201.361603,198.425812 
	C199.905640,197.511673 198.331772,195.174973 198.509521,193.689789 
	C198.716766,191.958252 200.637482,189.306305 202.077881,189.123108 
	C204.026398,188.875290 206.225357,190.596695 208.517258,191.797028 
z"/>
<path fill="##000000" opacity="1.000000" stroke="none" 
	d="
M211.953339,166.122391 
	C206.427673,167.734497 202.760529,165.524979 203.715439,161.315582 
	C204.085785,159.683075 205.767197,157.507660 207.215607,157.177505 
	C208.939667,156.784485 212.318390,157.656326 212.725220,158.789627 
	C213.457886,160.830566 212.511749,163.474167 211.953339,166.122391 
z"/>
<path fill="#000000" opacity="1.000000" stroke="none" 
	d="
M220.872009,168.903473 
	C225.522247,165.742813 229.451096,166.416687 230.097488,170.433472 
	C230.380524,172.192429 229.511826,174.948898 228.187363,175.926895 
	C226.852570,176.912506 223.246704,177.076477 222.516525,176.137711 
	C221.172653,174.409897 221.207047,171.610092 220.872009,168.903473 
z"/>
<path fill="#000000" opacity="1.000000" stroke="none" 
	d="
M196.812531,181.298279 
	C192.577499,181.030777 190.143921,178.826767 191.285324,175.174850 
	C191.858414,173.341202 194.810028,171.580154 196.950134,171.172272 
	C198.131104,170.947220 200.622910,173.334900 201.174820,174.993576 
	C202.211731,178.109726 200.532059,180.411224 196.812531,181.298279 
z"/>
<path fill="#000000" opacity="1.000000" stroke="none" 
	d="
M88.150009,181.378387 
	C90.110542,180.224777 91.980881,178.895218 93.848480,178.899033 
	C94.715706,178.900818 96.486870,181.707993 96.216675,182.861130 
	C95.862030,184.374695 94.019852,186.430115 92.598709,186.620621 
	C89.506729,187.035004 87.883179,184.966156 88.150009,181.378387 
z"/>
<path fill="#000000" opacity="1.000000" stroke="none" 
	d="
M107.325768,194.448517 
	C103.755554,195.434525 101.589439,193.891479 101.433113,190.892212 
	C101.359665,189.483017 103.173347,187.129822 104.565331,186.735794 
	C105.869583,186.366577 108.770119,187.709000 109.117241,188.857590 
	C109.574699,190.371262 108.224564,192.431198 107.325768,194.448517 
z"/>
<path fill="#000000" opacity="1.000000" stroke="none" 
	d="
M87.348663,212.436005 
	C86.020531,210.512512 84.426132,208.716675 84.368950,206.873138 
	C84.342056,206.005981 87.298050,204.314392 88.852234,204.371048 
	C90.011047,204.413269 91.785751,206.528839 92.059128,207.956085 
	C92.633789,210.956406 90.732735,212.487595 87.348663,212.436005 
z"/>
<path fill="#000000" opacity="1.000000" stroke="none" 
	d="
M100.722755,203.101837 
	C103.788857,200.679993 106.597771,200.971451 107.693863,204.237778 
	C108.172035,205.662720 106.651443,208.815689 105.182526,209.619461 
	C101.998322,211.361847 99.579422,208.025452 100.722755,203.101837 
z"/>
<path fill="#000000" opacity="1.000000" stroke="none" 
	d="
M80.461227,197.874146 
	C79.660088,195.621094 78.824455,193.449966 79.095116,191.426865 
	C79.174828,190.830978 82.853966,189.836990 84.030067,190.512146 
	C85.232399,191.202362 86.336250,194.219498 85.761101,195.308502 
	C85.031807,196.689423 82.566154,197.153290 80.461227,197.874146 
z"/>
</svg>